<svg id="Layer_1" data-name="Layer 1" xmlns="http://www.w3.org/2000/svg" viewBox="0 0 512 512">
	<defs>
		<style>
			.cls-1,
			.cls-4,
			.cls-5 {
			fill: none;
			}

			.cls-2 {
			fill: #313132;
			}

			.cls-3 {
			fill: #036;
			}

			.cls-4,
			.cls-5 {
			stroke: #036;
			stroke-linejoin: round;
			stroke-width: 4px;
			}

			.cls-4 {
			stroke-linecap: round;
			}
		</style>
	</defs>
    <g transform="translate(0.000000,512.000000) scale(0.100000,-0.100000)"
fill="#000000" stroke="none">
<path class="cls-3" d="M180 4333 c-27 -10 -65 -37 -96 -68 -91 -91 -84 53 -84 -1705 0
-1757 -7 -1614 83 -1705 94 -94 -160 -85 2477 -85 2637 0 2383 -9 2477 85 86
87 83 53 83 857 l0 699 -25 24 c-31 32 -69 32 -100 0 l-25 -24 0 -696 c0 -768
3 -735 -63 -775 -31 -20 -69 -20 -2345 -20 -2556 0 -2351 -5 -2392 63 -20 31
-20 62 -20 1575 0 1704 -5 1581 63 1622 31 20 69 20 2347 20 2278 0 2316 0
2347 -20 66 -40 63 -7 63 -775 l0 -696 25 -24 c31 -32 69 -32 100 0 l25 24 0
699 c0 804 3 770 -83 857 -94 94 161 85 -2481 84 -2097 0 -2335 -2 -2376 -16z"/>
<path class="cls-3" d="M636 3825 c-55 -19 -87 -45 -113 -91 l-23 -39 0 -1135 0 -1135 23
-40 c25 -44 72 -80 126 -95 52 -14 1853 -13 1906 1 55 15 101 52 128 102 l22
42 3 1095 c2 778 -1 1110 -9 1149 -14 70 -73 132 -141 149 -63 16 -777 17
-811 1 -24 -11 -47 -47 -47 -73 0 -7 9 -25 21 -40 l20 -26 388 0 c319 0 391
-3 407 -14 19 -14 19 -37 22 -970 2 -1007 4 -976 -40 -942 -10 7 -151 64 -313
127 l-295 114 0 39 c0 33 7 47 48 90 59 63 95 124 116 197 15 51 20 57 54 67
54 17 111 69 138 126 38 81 30 151 -27 241 l-31 50 1 175 c1 96 -3 198 -9 226
-19 89 -104 164 -185 164 -27 0 -35 4 -35 18 0 9 -14 40 -30 69 -23 41 -40 57
-83 78 l-54 26 -309 -3 -309 -3 -63 -34 c-78 -42 -144 -114 -174 -189 -21 -53
-23 -71 -23 -282 0 -183 3 -231 15 -255 15 -28 14 -33 -10 -80 -65 -127 -2
-281 135 -328 33 -12 40 -19 49 -58 19 -71 57 -139 114 -200 44 -48 52 -63 52
-96 l0 -39 -305 -118 c-168 -66 -308 -123 -311 -128 -3 -4 -9 -8 -15 -8 -12 0
-12 1900 1 1920 8 13 68 16 409 20 385 5 401 6 415 25 30 39 18 88 -25 110
-40 21 -764 21 -823 0z m1176 -422 c8 -10 20 -34 27 -53 25 -75 65 -107 150
-119 66 -9 71 -23 71 -223 0 -161 -1 -168 -20 -168 -30 0 -57 33 -65 78 -8 47
-29 69 -74 78 -30 6 -36 2 -94 -59 -91 -98 -88 -97 -416 -97 -246 0 -282 2
-296 16 -14 15 -16 42 -13 213 3 180 5 199 25 238 23 43 69 84 113 102 14 5
145 10 301 10 251 1 277 -1 291 -16z m138 -808 c0 -203 -28 -294 -115 -374
-73 -67 -123 -86 -230 -86 -82 0 -97 3 -157 33 -80 39 -139 102 -168 178 -17
46 -20 78 -20 199 l0 145 213 0 c235 0 284 8 353 58 l39 29 43 -36 42 -35 0
-111z m-840 25 c0 -56 -3 -68 -14 -64 -8 3 -20 19 -27 35 -10 26 -9 36 4 65
26 53 37 42 37 -36z m1026 9 c4 -26 1 -41 -15 -59 l-20 -25 -1 75 c0 67 2 73
15 59 9 -8 18 -31 21 -50z m-536 -644 c47 0 102 4 123 8 37 8 37 8 37 -24 0
-34 55 -99 84 -99 25 0 19 -16 -16 -46 -49 -41 -127 -73 -195 -80 -80 -9 -181
21 -248 73 -44 33 -47 38 -30 47 46 26 85 74 85 105 0 32 0 32 38 24 20 -4 75
-8 122 -8z m-367 -232 c185 -209 529 -215 722 -12 31 33 59 59 63 59 20 0 420
-162 451 -183 55 -37 94 -99 86 -136 -4 -17 -15 -36 -25 -41 -13 -7 -336 -9
-940 -8 -1015 3 -940 -2 -940 66 0 24 10 44 42 78 23 25 51 50 62 56 27 15
418 167 430 168 5 0 27 -21 49 -47z"/>
<path class="cls-3" d="M3050 3818 c-69 -35 -90 -85 -90 -213 0 -118 20 -173 72 -205 32 -20
45 -20 790 -18 l756 3 27 25 c48 45 55 70 55 198 0 131 -10 159 -73 206 -28
21 -36 21 -760 24 l-732 2 -45 -22z m1460 -208 l0 -80 -700 0 -700 0 0 73 c0
41 3 77 7 80 3 4 318 7 700 7 l693 0 0 -80z"/>
<path class="cls-3" d="M2985 3180 c-25 -28 -23 -76 4 -103 19 -19 35 -22 122 -25 119 -5
163 2 190 29 25 25 24 69 -1 97 -19 21 -30 22 -159 22 -125 0 -140 -2 -156
-20z"/>
<path class="cls-3" d="M3487 3182 c-24 -27 -22 -85 4 -108 20 -18 46 -19 543 -22 286 -2
536 0 554 3 66 12 95 82 52 125 -20 20 -33 20 -578 20 -529 0 -560 -1 -575
-18z"/>
<path class="cls-3" d="M3490 2860 c-27 -27 -26 -81 1 -106 20 -18 44 -19 576 -19 l555 0 19
24 c25 30 24 72 -1 99 l-21 22 -554 0 c-542 0 -555 0 -575 -20z"/>
<path class="cls-3" d="M2992 2543 c-12 -10 -24 -30 -28 -45 -5 -22 0 -34 25 -59 l31 -31
131 4 c123 3 132 4 150 27 26 32 24 73 -4 99 -21 20 -34 22 -154 22 -110 0
-134 -3 -151 -17z"/>
<path class="cls-3" d="M3490 2540 c-30 -30 -27 -83 7 -110 26 -20 31 -20 576 -18 l549 3 19
24 c26 32 24 73 -4 99 l-23 22 -552 0 c-539 0 -552 0 -572 -20z"/>
<path class="cls-3" d="M3490 2220 c-30 -30 -27 -83 6 -109 26 -21 35 -21 571 -21 l544 0 24
25 c32 31 33 74 2 103 l-23 22 -552 0 c-539 0 -552 0 -572 -20z"/>
<path class="cls-3" d="M2997 1909 c-46 -27 -41 -105 9 -128 14 -6 77 -11 145 -11 114 0 121
1 144 25 14 13 25 36 25 50 0 14 -11 37 -25 50 -23 24 -29 25 -152 25 -71 0
-136 -5 -146 -11z"/>
<path class="cls-3" d="M3490 1900 c-30 -30 -27 -83 6 -109 26 -21 35 -21 571 -21 l544 0 24
25 c32 31 33 74 2 103 l-23 22 -552 0 c-539 0 -552 0 -572 -20z"/>
<path class="cls-3" d="M3492 1580 c-32 -30 -30 -82 4 -109 26 -21 35 -21 571 -21 l544 0 24
25 c14 13 25 36 25 50 0 14 -11 37 -25 50 l-24 25 -549 0 c-538 0 -549 0 -570
-20z"/>
</g>

</svg>


