<?xml version="1.0" encoding="utf-8"?>
<!-- Generator: Adobe Illustrator 24.3.0, SVG Export Plug-In . SVG Version: 6.00 Build 0)  -->
<svg version="1.1" id="Layer_1" xmlns="http://www.w3.org/2000/svg" xmlns:xlink="http://www.w3.org/1999/xlink" x="0px" y="0px"
	 viewBox="0 0 600 800" style="enable-background:new 0 0 600 800;" xml:space="preserve">
<style type="text/css">
	.st0{opacity:0.4;}
	.st1{fill:#FFFFFF;stroke:#FFFFFF;stroke-miterlimit:10;}
</style>
<g class="st0">
	<path class="st1" d="M539.5,273.9v267c0,13.5-11,24.5-24.5,24.5H85c-13.5,0-24.5-11-24.5-24.5v-267c0-13.5,11-24.5,24.5-24.5h430
		C528.5,249.4,539.5,260.4,539.5,273.9z"/>
	<g>
		<path class="st1" d="M510.9,533l11.1-5l0,1.8l-8.2,3.7l8.2,3.7v1.8l-11.1-5.1L510.9,533L510.9,533z"/>
		<path class="st1" d="M495.8,533l11.1-5v1.8l-8.2,3.7l8.2,3.7v1.8l-11.1-5.1L495.8,533L495.8,533z"/>
		<path class="st1" d="M480.8,533l11.1-5l0,1.8l-8.2,3.7l8.2,3.7v1.8l-11.1-5.1L480.8,533L480.8,533z"/>
		<path class="st1" d="M465.7,533l11.1-5v1.8l-8.2,3.7l8.2,3.7v1.8l-11.1-5.1L465.7,533L465.7,533z"/>
		<path class="st1" d="M450.7,533l11.1-5l0,1.8l-8.2,3.7l8.2,3.7v1.8l-11.1-5.1L450.7,533L450.7,533z"/>
		<path class="st1" d="M435.6,533l11.1-5v1.8l-8.2,3.7l8.2,3.7v1.8l-11.1-5.1L435.6,533L435.6,533z"/>
		<path class="st1" d="M420.5,533l11.1-5l0,1.8l-8.2,3.7l8.2,3.7v1.8l-11.1-5.1L420.5,533L420.5,533z"/>
		<path class="st1" d="M405.5,533l11.1-5l0,1.8l-8.2,3.7l8.2,3.7v1.8l-11.1-5.1L405.5,533L405.5,533z"/>
		<path class="st1" d="M390.4,533l11.1-5v1.8l-8.2,3.7l8.1,3.7v1.8l-11.1-5.1L390.4,533L390.4,533z"/>
		<path class="st1" d="M375.3,533l11.1-5l0,1.8l-8.2,3.7l8.1,3.7v1.8l-11.1-5.1V533z"/>
		<path class="st1" d="M360.3,533l11.1-5v1.8l-8.2,3.7l8.1,3.7v1.8l-11.1-5.1L360.3,533L360.3,533z"/>
		<path class="st1" d="M345.2,533l11.1-5l0,1.8l-8.2,3.7l8.1,3.7v1.8l-11.1-5.1V533z"/>
		<path class="st1" d="M330.2,533l11.1-5v1.8l-8.2,3.7l8.1,3.7v1.8l-11.1-5.1L330.2,533L330.2,533z"/>
		<path class="st1" d="M315.1,533l11.1-5l0,1.8l-8.2,3.7l8.1,3.7v1.8l-11.1-5.1V533z"/>
		<path class="st1" d="M300,533l11.1-5v1.8l-8.2,3.7l8.1,3.7v1.8L300,534L300,533L300,533z"/>
		<path class="st1" d="M285,533l11.1-5l0,1.8l-8.2,3.7l8.1,3.7v1.8L285,534V533z"/>
		<path class="st1" d="M269.9,533l11.1-5v1.8l-8.2,3.7l8.1,3.7v1.8l-11.1-5.1L269.9,533L269.9,533z"/>
		<path class="st1" d="M254.9,533l11.1-5v1.8l-8.2,3.7l8.1,3.7v1.8l-11.1-5.1L254.9,533L254.9,533z"/>
		<path class="st1" d="M239.8,533l11.1-5v1.8l-8.2,3.7l8.1,3.7v1.8l-11.1-5.1L239.8,533L239.8,533z"/>
		<path class="st1" d="M224.7,533l11.1-5v1.8l-8.2,3.7l8.1,3.7v1.8l-11.1-5.1L224.7,533L224.7,533z"/>
		<path class="st1" d="M209.7,533l11.1-5v1.8l-8.2,3.7l8.1,3.7v1.8l-11.1-5.1L209.7,533L209.7,533z"/>
		<path class="st1" d="M194.6,533l11.1-5v1.8l-8.2,3.7l8.1,3.7v1.8l-11.1-5.1L194.6,533L194.6,533z"/>
		<path class="st1" d="M179.5,533l11.1-5v1.8l-8.2,3.7l8.1,3.7v1.8l-11.1-5.1L179.5,533L179.5,533z"/>
		<path class="st1" d="M164.5,533l11.1-5v1.8l-8.2,3.7l8.1,3.7v1.8l-11.1-5.1L164.5,533L164.5,533z"/>
		<path class="st1" d="M149.4,533l11.1-5v1.8l-8.2,3.7l8.1,3.7v1.8l-11.1-5.1L149.4,533L149.4,533z"/>
		<path class="st1" d="M134.4,533l11.1-5v1.8l-8.2,3.7l8.1,3.7v1.8l-11.1-5.1L134.4,533L134.4,533z"/>
		<path class="st1" d="M119.3,533l11.1-5v1.8l-8.2,3.7l8.1,3.7v1.8l-11.1-5.1L119.3,533L119.3,533z"/>
		<path class="st1" d="M104.2,533l11.1-5v1.8l-8.2,3.7l8.1,3.7v1.8l-11.1-5.1L104.2,533L104.2,533z"/>
		<path class="st1" d="M89.2,533l11.1-5v1.8l-8.2,3.7l8.1,3.7v1.8L89.2,534L89.2,533L89.2,533z"/>
		<path class="st1" d="M74.1,533l11.1-5v1.8l-8.2,3.7l8.1,3.7v1.8L74.1,534L74.1,533L74.1,533z"/>
	</g>
	<g>
		<path class="st1" d="M510.9,501.5l11.1-5l0,1.8l-8.2,3.7l8.2,3.7v1.9l-11.1-5.1L510.9,501.5L510.9,501.5z"/>
		<path class="st1" d="M495.8,501.5l11.1-5v1.8l-8.2,3.7l8.2,3.7v1.9l-11.1-5.1L495.8,501.5L495.8,501.5z"/>
		<path class="st1" d="M480.8,501.5l11.1-5l0,1.8l-8.2,3.7l8.2,3.7v1.9l-11.1-5.1L480.8,501.5L480.8,501.5z"/>
		<path class="st1" d="M465.7,501.5l11.1-5v1.8l-8.2,3.7l8.2,3.7v1.9l-11.1-5.1L465.7,501.5L465.7,501.5z"/>
		<path class="st1" d="M450.6,501.5l11.1-5l0,1.8l-8.2,3.7l8.2,3.7v1.9l-11.1-5.1L450.6,501.5L450.6,501.5z"/>
		<path class="st1" d="M435.6,501.5l11.1-5v1.8l-8.2,3.7l8.2,3.7v1.9l-11.1-5.1L435.6,501.5L435.6,501.5z"/>
		<path class="st1" d="M420.5,501.5l11.1-5l0,1.8l-8.2,3.7l8.2,3.7v1.9l-11.1-5.1L420.5,501.5L420.5,501.5z"/>
		<path class="st1" d="M405.5,501.5l11.1-5l0,1.8l-8.2,3.7l8.2,3.7v1.9l-11.1-5.1L405.5,501.5L405.5,501.5z"/>
		<path class="st1" d="M390.4,501.5l11.1-5v1.8l-8.2,3.7l8.1,3.7v1.9l-11.1-5.1L390.4,501.5L390.4,501.5z"/>
		<path class="st1" d="M375.3,501.5l11.1-5l0,1.8l-8.2,3.7l8.1,3.7v1.9l-11.1-5.1V501.5z"/>
		<path class="st1" d="M360.3,501.5l11.1-5v1.8l-8.2,3.7l8.1,3.7v1.9l-11.1-5.1L360.3,501.5L360.3,501.5z"/>
		<path class="st1" d="M345.2,501.5l11.1-5l0,1.8l-8.2,3.7l8.1,3.7v1.9l-11.1-5.1V501.5z"/>
		<path class="st1" d="M330.1,501.5l11.1-5v1.8l-8.2,3.7l8.1,3.7v1.9l-11.1-5.1L330.1,501.5L330.1,501.5z"/>
		<path class="st1" d="M315.1,501.5l11.1-5l0,1.8L318,502l8.1,3.7v1.9l-11.1-5.1V501.5z"/>
		<path class="st1" d="M300,501.5l11.1-5v1.8l-8.2,3.7l8.1,3.7v1.9l-11.1-5.1L300,501.5L300,501.5z"/>
		<path class="st1" d="M285,501.5l11.1-5l0,1.8l-8.2,3.7l8.1,3.7v1.9l-11.1-5.1V501.5z"/>
		<path class="st1" d="M269.9,501.5l11.1-5v1.8l-8.2,3.7l8.1,3.7v1.9l-11.1-5.1L269.9,501.5L269.9,501.5z"/>
		<path class="st1" d="M254.8,501.5l11.1-5v1.8l-8.2,3.7l8.1,3.7v1.9l-11.1-5.1L254.8,501.5L254.8,501.5z"/>
		<path class="st1" d="M239.8,501.5l11.1-5v1.8l-8.2,3.7l8.1,3.7v1.9l-11.1-5.1L239.8,501.5L239.8,501.5z"/>
		<path class="st1" d="M224.7,501.5l11.1-5v1.8l-8.2,3.7l8.1,3.7v1.9l-11.1-5.1L224.7,501.5L224.7,501.5z"/>
		<path class="st1" d="M209.7,501.5l11.1-5v1.8l-8.2,3.7l8.1,3.7v1.9l-11.1-5.1L209.7,501.5L209.7,501.5z"/>
		<path class="st1" d="M194.6,501.5l11.1-5v1.8l-8.2,3.7l8.1,3.7v1.9l-11.1-5.1L194.6,501.5L194.6,501.5z"/>
		<path class="st1" d="M179.5,501.5l11.1-5v1.8l-8.2,3.7l8.1,3.7v1.9l-11.1-5.1L179.5,501.5L179.5,501.5z"/>
		<path class="st1" d="M164.5,501.5l11.1-5v1.8l-8.2,3.7l8.1,3.7v1.9l-11.1-5.1L164.5,501.5L164.5,501.5z"/>
		<path class="st1" d="M149.4,501.5l11.1-5v1.8l-8.2,3.7l8.1,3.7v1.9l-11.1-5.1L149.4,501.5L149.4,501.5z"/>
		<path class="st1" d="M134.3,501.5l11.1-5v1.8l-8.2,3.7l8.1,3.7v1.9l-11.1-5.1L134.3,501.5L134.3,501.5z"/>
		<path class="st1" d="M119.3,501.5l11.1-5v1.8l-8.2,3.7l8.1,3.7v1.9l-11.1-5.1L119.3,501.5L119.3,501.5z"/>
		<path class="st1" d="M104.2,501.5l11.1-5v1.8l-8.2,3.7l8.1,3.7v1.9l-11.1-5.1L104.2,501.5L104.2,501.5z"/>
		<path class="st1" d="M89.2,501.5l11.1-5v1.8l-8.2,3.7l8.1,3.7v1.9l-11.1-5.1L89.2,501.5L89.2,501.5z"/>
		<path class="st1" d="M74.1,501.5l11.1-5v1.8L77,502l8.1,3.7v1.9l-11.1-5.1L74.1,501.5L74.1,501.5z"/>
	</g>
	<g>
		<path class="st1" d="M510.9,469.4l11.1-5l0,1.8l-8.2,3.7l8.2,3.7v1.9l-11.1-5.1L510.9,469.4L510.9,469.4z"/>
		<path class="st1" d="M495.8,469.4l11.1-5v1.8l-8.2,3.7l8.2,3.7v1.9l-11.1-5.1L495.8,469.4L495.8,469.4z"/>
		<path class="st1" d="M480.8,469.4l11.1-5l0,1.8l-8.2,3.7l8.2,3.7v1.9l-11.1-5.1L480.8,469.4L480.8,469.4z"/>
		<path class="st1" d="M465.7,469.4l11.1-5v1.8l-8.2,3.7l8.2,3.7v1.9l-11.1-5.1L465.7,469.4L465.7,469.4z"/>
		<path class="st1" d="M450.6,469.4l11.1-5l0,1.8l-8.2,3.7l8.2,3.7v1.9l-11.1-5.1L450.6,469.4L450.6,469.4z"/>
		<path class="st1" d="M435.6,469.4l11.1-5v1.8l-8.2,3.7l8.2,3.7v1.9l-11.1-5.1L435.6,469.4L435.6,469.4z"/>
		<path class="st1" d="M420.5,469.4l11.1-5l0,1.8l-8.2,3.7l8.2,3.7v1.9l-11.1-5.1L420.5,469.4L420.5,469.4z"/>
		<path class="st1" d="M405.4,469.4l11.1-5l0,1.8l-8.2,3.7l8.2,3.7v1.9l-11.1-5.1L405.4,469.4L405.4,469.4z"/>
		<path class="st1" d="M390.4,469.4l11.1-5v1.8l-8.2,3.7l8.1,3.7v1.9l-11.1-5.1L390.4,469.4L390.4,469.4z"/>
		<path class="st1" d="M375.3,469.4l11.1-5l0,1.8l-8.2,3.7l8.1,3.7v1.9l-11.1-5.1V469.4z"/>
		<path class="st1" d="M360.3,469.4l11.1-5v1.8l-8.2,3.7l8.1,3.7v1.9l-11.1-5.1L360.3,469.4L360.3,469.4z"/>
		<path class="st1" d="M345.2,469.4l11.1-5l0,1.8l-8.2,3.7l8.1,3.7v1.9l-11.1-5.1V469.4z"/>
		<path class="st1" d="M330.1,469.4l11.1-5v1.8l-8.2,3.7l8.1,3.7v1.9l-11.1-5.1L330.1,469.4L330.1,469.4z"/>
		<path class="st1" d="M315.1,469.4l11.1-5l0,1.8l-8.2,3.7l8.1,3.7v1.9l-11.1-5.1V469.4z"/>
		<path class="st1" d="M300,469.4l11.1-5v1.8l-8.2,3.7l8.1,3.7v1.9l-11.1-5.1L300,469.4L300,469.4z"/>
		<path class="st1" d="M284.9,469.4l11.1-5l0,1.8l-8.2,3.7l8.1,3.7v1.9l-11.1-5.1V469.4z"/>
		<path class="st1" d="M269.9,469.4l11.1-5v1.8l-8.2,3.7l8.1,3.7v1.9l-11.1-5.1L269.9,469.4L269.9,469.4z"/>
		<path class="st1" d="M254.8,469.4l11.1-5v1.8l-8.2,3.7l8.1,3.7v1.9l-11.1-5.1L254.8,469.4L254.8,469.4z"/>
		<path class="st1" d="M239.8,469.4l11.1-5v1.8l-8.2,3.7l8.1,3.7v1.9l-11.1-5.1L239.8,469.4L239.8,469.4z"/>
		<path class="st1" d="M224.7,469.4l11.1-5v1.8l-8.2,3.7l8.1,3.7v1.9l-11.1-5.1L224.7,469.4L224.7,469.4z"/>
		<path class="st1" d="M209.6,469.4l11.1-5v1.8l-8.2,3.7l8.1,3.7v1.9l-11.1-5.1L209.6,469.4L209.6,469.4z"/>
		<path class="st1" d="M194.6,469.4l11.1-5v1.8l-8.2,3.7l8.1,3.7v1.9l-11.1-5.1L194.6,469.4L194.6,469.4z"/>
		<path class="st1" d="M179.5,469.4l11.1-5v1.8l-8.2,3.7l8.1,3.7v1.9l-11.1-5.1L179.5,469.4L179.5,469.4z"/>
		<path class="st1" d="M164.5,469.4l11.1-5v1.8l-8.2,3.7l8.1,3.7v1.9l-11.1-5.1L164.5,469.4L164.5,469.4z"/>
		<path class="st1" d="M149.4,469.4l11.1-5v1.8l-8.2,3.7l8.1,3.7v1.9l-11.1-5.1L149.4,469.4L149.4,469.4z"/>
		<path class="st1" d="M134.3,469.4l11.1-5v1.8l-8.2,3.7l8.1,3.7v1.9l-11.1-5.1L134.3,469.4L134.3,469.4z"/>
		<path class="st1" d="M119.3,469.4l11.1-5v1.8l-8.2,3.7l8.1,3.7v1.9l-11.1-5.1L119.3,469.4L119.3,469.4z"/>
		<path class="st1" d="M104.2,469.4l11.1-5v1.8l-8.2,3.7l8.1,3.7v1.9l-11.1-5.1L104.2,469.4L104.2,469.4z"/>
		<path class="st1" d="M89.1,469.4l11.1-5v1.8l-8.2,3.7l8.1,3.7v1.9l-11.1-5.1L89.1,469.4L89.1,469.4z"/>
		<path class="st1" d="M74.1,469.4l11.1-5v1.8l-8.2,3.7l8.1,3.7v1.9l-11.1-5.1L74.1,469.4L74.1,469.4z"/>
	</g>
</g>
</svg>
