<?xml version="1.0" encoding="utf-8"?>
<!-- Generator: Adobe Illustrator 24.3.0, SVG Export Plug-In . SVG Version: 6.00 Build 0)  -->
<svg version="1.1" id="Layer_1" xmlns="http://www.w3.org/2000/svg" xmlns:xlink="http://www.w3.org/1999/xlink" x="0px" y="0px"
	 viewBox="0 0 600 800" style="enable-background:new 0 0 600 800;" xml:space="preserve">
<style type="text/css">
	.st0{opacity:0.4;}
	.st1{fill:#FFFFFF;stroke:#FFFFFF;stroke-miterlimit:10;}
</style>
<g class="st0">
	<path class="st1" d="M433.5,646.9h-267c-13.53,0-24.5-10.97-24.5-24.5v-430c0-13.53,10.97-24.5,24.5-24.5h267
		c13.53,0,24.5,10.97,24.5,24.5v430C458,635.93,447.03,646.9,433.5,646.9z"/>
	<g>
		<path class="st1" d="M174.43,618.31l5,11.08l-1.83,0.01l-3.7-8.16l-3.74,8.15l-1.85,0l5.06-11.08H174.43z"/>
		<path class="st1" d="M174.43,603.24l5,11.08l-1.83,0l-3.7-8.16l-3.74,8.15l-1.85,0l5.06-11.08H174.43z"/>
		<path class="st1" d="M174.43,588.18l5,11.08l-1.83,0.01l-3.7-8.16l-3.74,8.15l-1.85,0l5.06-11.08H174.43z"/>
		<path class="st1" d="M174.43,573.12l5,11.08l-1.83,0l-3.7-8.16l-3.74,8.15l-1.85,0l5.06-11.08H174.43z"/>
		<path class="st1" d="M174.43,558.06l5,11.08l-1.83,0.01l-3.7-8.16l-3.74,8.15l-1.85,0l5.06-11.08H174.43z"/>
		<path class="st1" d="M174.43,543l5,11.08l-1.83,0l-3.7-8.16l-3.74,8.15l-1.85,0l5.06-11.08H174.43z"/>
		<path class="st1" d="M174.43,527.94l5,11.08l-1.83,0.01l-3.7-8.16l-3.74,8.15l-1.85,0l5.06-11.08H174.43z"/>
		<path class="st1" d="M174.43,512.88l5,11.08l-1.83,0.01l-3.7-8.16l-3.74,8.15l-1.85,0l5.06-11.08H174.43z"/>
		<path class="st1" d="M174.43,497.81l5,11.08l-1.83,0l-3.7-8.16l-3.74,8.15l-1.85,0l5.06-11.08H174.43z"/>
		<path class="st1" d="M174.43,482.75l5,11.08l-1.83,0.01l-3.7-8.16l-3.74,8.15l-1.85,0l5.06-11.08H174.43z"/>
		<path class="st1" d="M174.43,467.69l5,11.08l-1.83,0l-3.7-8.16l-3.74,8.15l-1.85,0l5.06-11.08H174.43z"/>
		<path class="st1" d="M174.43,452.63l5,11.08l-1.83,0.01l-3.7-8.16l-3.74,8.15l-1.85,0l5.06-11.08H174.43z"/>
		<path class="st1" d="M174.43,437.57l5,11.08l-1.83,0l-3.7-8.16l-3.74,8.15l-1.85,0l5.06-11.08H174.43z"/>
		<path class="st1" d="M174.43,422.51l5,11.08l-1.83,0.01l-3.7-8.16l-3.74,8.15l-1.85,0l5.06-11.08H174.43z"/>
		<path class="st1" d="M174.43,407.45l5,11.08l-1.83,0l-3.7-8.16l-3.74,8.15l-1.85,0l5.06-11.08H174.43z"/>
		<path class="st1" d="M174.43,392.38l5,11.08l-1.83,0.01l-3.7-8.16l-3.74,8.15l-1.85,0l5.06-11.08H174.43z"/>
		<path class="st1" d="M174.43,377.32l5,11.08l-1.83,0l-3.7-8.16l-3.74,8.15l-1.85,0l5.06-11.08H174.43z"/>
		<path class="st1" d="M174.43,362.26l5,11.08l-1.83,0l-3.7-8.16l-3.74,8.15l-1.85,0l5.06-11.08H174.43z"/>
		<path class="st1" d="M174.43,347.2l5,11.08l-1.83,0l-3.7-8.16l-3.74,8.15l-1.85,0l5.06-11.08H174.43z"/>
		<path class="st1" d="M174.43,332.14l5,11.08l-1.83,0l-3.7-8.16l-3.74,8.15l-1.85,0l5.06-11.08H174.43z"/>
		<path class="st1" d="M174.43,317.08l5,11.08l-1.83,0l-3.7-8.16l-3.74,8.15l-1.85,0l5.06-11.08H174.43z"/>
		<path class="st1" d="M174.43,302.02l5,11.08l-1.83,0l-3.7-8.16l-3.74,8.15l-1.85,0l5.06-11.08H174.43z"/>
		<path class="st1" d="M174.43,286.95l5,11.08l-1.83,0l-3.7-8.16l-3.74,8.15l-1.85,0l5.06-11.08H174.43z"/>
		<path class="st1" d="M174.43,271.89l5,11.08l-1.83,0l-3.7-8.16l-3.74,8.15l-1.85,0l5.06-11.08H174.43z"/>
		<path class="st1" d="M174.43,256.83l5,11.08l-1.83,0l-3.7-8.16l-3.74,8.15l-1.85,0l5.06-11.08H174.43z"/>
		<path class="st1" d="M174.43,241.77l5,11.08l-1.83,0l-3.7-8.16l-3.74,8.15l-1.85,0l5.06-11.08H174.43z"/>
		<path class="st1" d="M174.43,226.71l5,11.08l-1.83,0l-3.7-8.16l-3.74,8.15l-1.85,0l5.06-11.08H174.43z"/>
		<path class="st1" d="M174.43,211.65l5,11.08l-1.83,0l-3.7-8.16l-3.74,8.15l-1.85,0l5.06-11.08H174.43z"/>
		<path class="st1" d="M174.43,196.58l5,11.08l-1.83,0l-3.7-8.16l-3.74,8.15l-1.85,0l5.06-11.08H174.43z"/>
		<path class="st1" d="M174.43,181.52l5,11.08l-1.83,0l-3.7-8.16l-3.74,8.15l-1.85,0l5.06-11.08H174.43z"/>
	</g>
	<g>
		<path class="st1" d="M205.95,618.29l5,11.08l-1.83,0.01l-3.7-8.16l-3.74,8.15l-1.85,0l5.06-11.08H205.95z"/>
		<path class="st1" d="M205.95,603.23l5,11.08l-1.83,0l-3.7-8.16l-3.74,8.15l-1.85,0l5.06-11.08H205.95z"/>
		<path class="st1" d="M205.95,588.17l5,11.08l-1.83,0.01l-3.7-8.16l-3.74,8.15l-1.85,0l5.06-11.08H205.95z"/>
		<path class="st1" d="M205.95,573.1l5,11.08l-1.83,0l-3.7-8.16l-3.74,8.15l-1.85,0l5.06-11.08H205.95z"/>
		<path class="st1" d="M205.95,558.04l5,11.08l-1.83,0.01l-3.7-8.16l-3.74,8.15l-1.85,0l5.06-11.08H205.95z"/>
		<path class="st1" d="M205.95,542.98l5,11.08l-1.83,0l-3.7-8.16l-3.74,8.15l-1.85,0l5.06-11.08H205.95z"/>
		<path class="st1" d="M205.95,527.92l5,11.08l-1.83,0.01l-3.7-8.16l-3.74,8.15l-1.85,0l5.06-11.08H205.95z"/>
		<path class="st1" d="M205.95,512.86l5,11.08l-1.83,0.01l-3.7-8.16l-3.74,8.15l-1.85,0l5.06-11.08H205.95z"/>
		<path class="st1" d="M205.95,497.8l5,11.08l-1.83,0l-3.7-8.16l-3.74,8.15l-1.85,0l5.06-11.08H205.95z"/>
		<path class="st1" d="M205.95,482.74l5,11.08l-1.83,0.01l-3.7-8.16l-3.74,8.15l-1.85,0l5.06-11.08H205.95z"/>
		<path class="st1" d="M205.95,467.67l5,11.08l-1.83,0l-3.7-8.16l-3.74,8.15l-1.85,0l5.06-11.08H205.95z"/>
		<path class="st1" d="M205.95,452.61l5,11.08l-1.83,0.01l-3.7-8.16l-3.74,8.15l-1.85,0l5.06-11.08H205.95z"/>
		<path class="st1" d="M205.95,437.55l5,11.08l-1.83,0l-3.7-8.16l-3.74,8.15l-1.85,0l5.06-11.08H205.95z"/>
		<path class="st1" d="M205.95,422.49l5,11.08l-1.83,0.01l-3.7-8.16l-3.74,8.15l-1.85,0l5.06-11.08H205.95z"/>
		<path class="st1" d="M205.95,407.43l5,11.08l-1.83,0l-3.7-8.16l-3.74,8.15l-1.85,0l5.06-11.08H205.95z"/>
		<path class="st1" d="M205.95,392.37l5,11.08l-1.83,0.01l-3.7-8.16l-3.74,8.15l-1.85,0l5.06-11.08H205.95z"/>
		<path class="st1" d="M205.95,377.3l5,11.08l-1.83,0l-3.7-8.16l-3.74,8.15l-1.85,0l5.06-11.08H205.95z"/>
		<path class="st1" d="M205.95,362.24l5,11.08l-1.83,0l-3.7-8.16l-3.74,8.15l-1.85,0l5.06-11.08H205.95z"/>
		<path class="st1" d="M205.95,347.18l5,11.08l-1.83,0l-3.7-8.16l-3.74,8.15l-1.85,0l5.06-11.08H205.95z"/>
		<path class="st1" d="M205.95,332.12l5,11.08l-1.83,0l-3.7-8.16l-3.74,8.15l-1.85,0l5.06-11.08H205.95z"/>
		<path class="st1" d="M205.95,317.06l5,11.08l-1.83,0l-3.7-8.16l-3.74,8.15l-1.85,0l5.06-11.08H205.95z"/>
		<path class="st1" d="M205.95,302l5,11.08l-1.83,0l-3.7-8.16l-3.74,8.15l-1.85,0l5.06-11.08H205.95z"/>
		<path class="st1" d="M205.95,286.94l5,11.08l-1.83,0l-3.7-8.16l-3.74,8.15l-1.85,0l5.06-11.08H205.95z"/>
		<path class="st1" d="M205.95,271.87l5,11.08l-1.83,0l-3.7-8.16l-3.74,8.15l-1.85,0l5.06-11.08H205.95z"/>
		<path class="st1" d="M205.95,256.81l5,11.08l-1.83,0l-3.7-8.16l-3.74,8.15l-1.85,0l5.06-11.08H205.95z"/>
		<path class="st1" d="M205.95,241.75l5,11.08l-1.83,0l-3.7-8.16l-3.74,8.15l-1.85,0l5.06-11.08H205.95z"/>
		<path class="st1" d="M205.95,226.69l5,11.08l-1.83,0l-3.7-8.16l-3.74,8.15l-1.85,0l5.06-11.08H205.95z"/>
		<path class="st1" d="M205.95,211.63l5,11.08l-1.83,0l-3.7-8.16l-3.74,8.15l-1.85,0l5.06-11.08H205.95z"/>
		<path class="st1" d="M205.95,196.57l5,11.08l-1.83,0l-3.7-8.16l-3.74,8.15l-1.85,0l5.06-11.08H205.95z"/>
		<path class="st1" d="M205.95,181.51l5,11.08l-1.83,0l-3.7-8.16l-3.74,8.15l-1.85,0l5.06-11.08H205.95z"/>
	</g>
	<g>
		<path class="st1" d="M238.01,618.27l5,11.08l-1.83,0.01l-3.7-8.16l-3.74,8.15l-1.85,0l5.06-11.08H238.01z"/>
		<path class="st1" d="M238.01,603.21l5,11.08l-1.83,0l-3.7-8.16l-3.74,8.15l-1.85,0l5.06-11.08H238.01z"/>
		<path class="st1" d="M238.01,588.15l5,11.08l-1.83,0.01l-3.7-8.16l-3.74,8.15l-1.85,0l5.06-11.08H238.01z"/>
		<path class="st1" d="M238.01,573.09l5,11.08l-1.83,0l-3.7-8.16l-3.74,8.15l-1.85,0l5.06-11.08H238.01z"/>
		<path class="st1" d="M238.01,558.03l5,11.08l-1.83,0.01l-3.7-8.16l-3.74,8.15l-1.85,0l5.06-11.08H238.01z"/>
		<path class="st1" d="M238.01,542.96l5,11.08l-1.83,0l-3.7-8.16l-3.74,8.15l-1.85,0l5.06-11.08H238.01z"/>
		<path class="st1" d="M238.01,527.9l5,11.08l-1.83,0.01l-3.7-8.16l-3.74,8.15l-1.85,0l5.06-11.08H238.01z"/>
		<path class="st1" d="M238.01,512.84l5,11.08l-1.83,0.01l-3.7-8.16l-3.74,8.15l-1.85,0l5.06-11.08H238.01z"/>
		<path class="st1" d="M238.01,497.78l5,11.08l-1.83,0l-3.7-8.16l-3.74,8.15l-1.85,0l5.06-11.08H238.01z"/>
		<path class="st1" d="M238.01,482.72l5,11.08l-1.83,0.01l-3.7-8.16l-3.74,8.15l-1.85,0l5.06-11.08H238.01z"/>
		<path class="st1" d="M238.01,467.66l5,11.08l-1.83,0l-3.7-8.16l-3.74,8.15l-1.85,0l5.06-11.08H238.01z"/>
		<path class="st1" d="M238.01,452.6l5,11.08l-1.83,0.01l-3.7-8.16l-3.74,8.15l-1.85,0l5.06-11.08H238.01z"/>
		<path class="st1" d="M238.01,437.54l5,11.08l-1.83,0l-3.7-8.16l-3.74,8.15l-1.85,0l5.06-11.08H238.01z"/>
		<path class="st1" d="M238.01,422.47l5,11.08l-1.83,0.01l-3.7-8.16l-3.74,8.15l-1.85,0l5.06-11.08H238.01z"/>
		<path class="st1" d="M238.01,407.41l5,11.08l-1.83,0l-3.7-8.16l-3.74,8.15l-1.85,0l5.06-11.08H238.01z"/>
		<path class="st1" d="M238.01,392.35l5,11.08l-1.83,0.01l-3.7-8.16l-3.74,8.15l-1.85,0l5.06-11.08H238.01z"/>
		<path class="st1" d="M238.01,377.29l5,11.08l-1.83,0l-3.7-8.16l-3.74,8.15l-1.85,0l5.06-11.08H238.01z"/>
		<path class="st1" d="M238.01,362.23l5,11.08l-1.83,0l-3.7-8.16l-3.74,8.15l-1.85,0l5.06-11.08H238.01z"/>
		<path class="st1" d="M238.01,347.17l5,11.08l-1.83,0l-3.7-8.16l-3.74,8.15l-1.85,0l5.06-11.08H238.01z"/>
		<path class="st1" d="M238.01,332.1l5,11.08l-1.83,0l-3.7-8.16l-3.74,8.15l-1.85,0l5.06-11.08H238.01z"/>
		<path class="st1" d="M238.01,317.04l5,11.08l-1.83,0l-3.7-8.16l-3.74,8.15l-1.85,0l5.06-11.08H238.01z"/>
		<path class="st1" d="M238.01,301.98l5,11.08l-1.83,0l-3.7-8.16l-3.74,8.15l-1.85,0l5.06-11.08H238.01z"/>
		<path class="st1" d="M238.01,286.92l5,11.08l-1.83,0l-3.7-8.16l-3.74,8.15l-1.85,0l5.06-11.08H238.01z"/>
		<path class="st1" d="M238.01,271.86l5,11.08l-1.83,0l-3.7-8.16l-3.74,8.15l-1.85,0l5.06-11.08H238.01z"/>
		<path class="st1" d="M238.01,256.8l5,11.08l-1.83,0l-3.7-8.16l-3.74,8.15l-1.85,0l5.06-11.08H238.01z"/>
		<path class="st1" d="M238.01,241.74l5,11.08l-1.83,0l-3.7-8.16l-3.74,8.15l-1.85,0l5.06-11.08H238.01z"/>
		<path class="st1" d="M238.01,226.67l5,11.08l-1.83,0l-3.7-8.16l-3.74,8.15l-1.85,0l5.06-11.08H238.01z"/>
		<path class="st1" d="M238.01,211.61l5,11.08l-1.83,0l-3.7-8.16l-3.74,8.15l-1.85,0l5.06-11.08H238.01z"/>
		<path class="st1" d="M238.01,196.55l5,11.08l-1.83,0l-3.7-8.16l-3.74,8.15l-1.85,0l5.06-11.08H238.01z"/>
		<path class="st1" d="M238.01,181.49l5,11.08l-1.83,0l-3.7-8.16l-3.74,8.15l-1.85,0l5.06-11.08H238.01z"/>
	</g>
</g>
</svg>
