<?xml version="1.0" encoding="utf-8"?>
<!-- Generator: Adobe Illustrator 24.3.0, SVG Export Plug-In . SVG Version: 6.00 Build 0)  -->
<svg version="1.1" id="Layer_1" xmlns="http://www.w3.org/2000/svg" xmlns:xlink="http://www.w3.org/1999/xlink" x="0px" y="0px"
	 viewBox="0 0 700 700" style="enable-background:new 0 0 700 700;" xml:space="preserve">
<style type="text/css">
	.st0{fill:#003366;}
	.st1{fill: #ff0000;}
</style>
<g transform="translate(94.000000,606.000000) scale(0.100000,-0.100000)">
	<path class="st0" d="M243,5106c-88-28-176-107-216-194c-21-46-22-59-25-530l-3-483l30-29c43-43,106-35,130,17c8,16,11,165,11,473
		c0,293,4,458,11,477c14,38,57,83,96,99c26,11,122,14,482,14c309,0,458,3,474,11c52,24,60,87,18,130l-29,29l-469-1
		C398,5119,275,5116,243,5106z"/>
	<path class="st0" d="M3870,5091c-43-43-35-106,17-130c16-8,165-11,473-11c293,0,458-4,477-11c38-14,83-57,99-96
		c11-26,14-122,14-482c0-309,3-458,11-474c24-52,87-60,130-17l30,29l-3,483l-3,483l-27,55c-35,71-97,133-167,168l-56,27l-483,3
		l-483,3L3870,5091z"/>
	<path class="st0" d="M4500,1073c-39,127-141,228-275,275c-33,12-224,71-425,133c-201,61-372,115-381,120c-11,6-20,46-33,163
		l-19,156l51,53c27,30,59,71,70,93c31,61,69,191,82,280l12,80l47,17c56,20,117,76,142,132c10,22,21,76,24,120c4,44,11,90,16,102
		l9,23h2c1,20.3,7.3,40.7,17.1,58.4c13.4,24.2,24.7,46.5,35.1,72c2.7,6.6,6.1,12.8,9.8,18.7c1.4,4.9,2.9,9.7,4.3,14.6
		c1.1,3.8,2.6,7.2,4.4,10.4l14.2,33.8c22,51,21,155-2,221c-24,72-92,142-156,160l-46,13l13,45c47,156,68,356,54,502
		c-45,438-346,710-870,786c-130,19-443,27-570,15c-564-55-889-289-974-703c-31-151-17-399,33-579l19-68l-41-12
		c-60-18-129-90-153-159c-22-66-23-169-1-221l10.9-25.9c2.7-3.8,4.5-8.1,5.6-12.7c3.6-6.6,7-13,9.6-20.4c2.4-6.9,3.6-14.4,5.2-21.5
		c0.5-2.4,0.7-4.8,1-7.2c3.3-5.4,6.7-10.5,9.1-15c8.7-16.4,17.1-33.1,24.6-50.2c8.3-18.9,14.9-36.9,18.5-55.2h2.5l10-24
		c4-13,11-57,15-97c3-41,13-93,21-116c19-53,97-125,153-142c23-6,41-16,41-20c0-31,34-197,52-251c31-95,54-137,110-197l51-53
		l-19-156c-13-117-22-157-33-164c-9-4-187-60-396-124c-209-64-400-124-425-133c-121-43-223-149-260-270c-17-55-20-93-20-250
		c0-173,2-188,22-225c12-21,38-49,58-61l35-22h3691l37,25c70,48,77,74,77,283C4520,980,4517,1018,4500,1073z M1586,4208
		c42,87,136,187,228,241c125,74,323,131,526,151c115,11,405,5,515-10c498-69,746-311,749-730c1-63-3-128-7-145c-9-29-10-27-36,45
		c-90,245-242,420-364,420c-57,0-87-17-164-91c-119-116-248-159-473-159s-354,43-473,159c-77,74-107,91-164,91
		c-125,0-279-181-369-434c-27-76-28-78-37-50c-5,16-9,85-9,154C1508,3995,1528,4087,1586,4208z M1710,2473c0,53-20,101-45,111
		c-9,3-30,6-46,6c-44,0-98,26-108,52c-9.1,23.1-22.9,122-23.5,159.1c-7.5,16.3-14,33.2-20.8,50.2c-18.3,46.2-37.4,92.1-54.7,138.7
		h-1l-20,55c-30,80-28,149,5,182c23,23,30,25,72,18c127-19,141-6,171,159c45,242,132,456,227,554l53,55l43-44c24-25,65-60,91-78
		c110-75,247-119,409-130c308-20,544,50,695,208l43,45l54-57c35-36,70-90,99-149c68-138,137-380,137-478c0-26,8-48,23-65
		c24-28,55-33,139-20c42,7,49,5,72-18c33-33,35-102,5-182l-20-55h-3.1c-20.3-40.4-33.1-85.4-52.3-126.8
		c-8.6-18.6-14.3-38.3-21.3-57.2c0.3-35.3-17.6-161-26.3-175c-12-19-70-41-108-41c-59-1-88-40-88-117c0-69-17-162-46-256
		c-24-76-31-87-98-152c-49-47-109-91-185-135c-79-45-140-90-202-148c-94-88-172-133-267-153c-45-9-66-8-119,5c-99,25-160,61-248,146
		c-49,47-112,95-165,125c-192,108-285,195-319,298C1734,2284,1711,2407,1710,2473z M3221,1495c-54-122-225-236-412-276
		c-130-27-367-27-495,0c-186,39-351,146-410,266l-26,54l16,123c9,68,16,127,16,131c0,12,10,8,83-35c40-22,108-76,153-118
		c99-94,208-153,332-177c76-15,88-15,165,0c123,24,232,83,331,176c68,65,221,169,232,159c2-2,10-61,19-130
		C3241,1544,3241,1540,3221,1495z M4350,680H770v154c0,205,23,267,117,323c31,18,795,264,845,272c3,1,19-20,34-46
		c67-115,215-235,353-286c134-50,259-69,441-69c248,0,421,41,575,137c80,50,178,147,219,218c24,40,32,47,50,41c11-4,193-60,404-125
		c211-65,402-129,425-142c94-56,117-118,117-323V680z"/>
	<path class="st1" d="M4681.3,2823.6H517.2c-31.4,0-56.9,25.5-56.9,56.9v59.1c0,31.4,25.5,56.9,56.9,56.9h4164.1
		c31.4,0,56.9-25.5,56.9-56.9v-59.1C4738.1,2849,4712.7,2823.6,4681.3,2823.6z"/>
	<path class="st0" d="M29,1250l-30-29l3-483l3-483l28-56C65,132,142,57,208,27C254,5,266,5,738,2l483-3l29,30c43,43,35,106-17,130
		c-16,8-165,11-474,11c-360,0-456,3-482,14c-39,16-82,61-96,99c-7,19-11,184-11,477c0,308-3,457-11,473C135,1285,72,1293,29,1250z"
		/>
	<path class="st0" d="M4994,1268c-42-20-44-39-44-508c0-293-4-458-11-477c-14-38-57-83-96-99c-26-11-122-14-482-14
		c-309,0-458-3-474-11c-52-24-60-87-17-130l29-30l483,3c472,3,484,3,530,25c66,30,143,105,175,172l28,56l3,483l3,483l-30,29
		C5061,1281,5031,1286,4994,1268z"/>
</g>
</svg>
