<svg id="Layer_1" data-name="Layer 1" xmlns="http://www.w3.org/2000/svg" viewBox="0 0 200 200">
  <defs>
    <style>
      .cls-1,
      .cls-3 {
        fill: none;
      }

      .cls-2 {
        fill: #036;
      }

      .cls-3 {
        stroke: #d8292f;
        stroke-linecap: round;
        stroke-miterlimit: 10;
        stroke-width: 4px;
      }
    </style>
  </defs>
  <path class="cls-2"
    d="M180.44,136.84H108.12a8.12,8.12,0,0,1-8.12-8.11V71.27a8.12,8.12,0,0,1,8.12-8.11h72.32a8.12,8.12,0,0,1,8.11,8.11v57.46A8.12,8.12,0,0,1,180.44,136.84ZM108.12,67.16A4.12,4.12,0,0,0,104,71.27v57.46a4.12,4.12,0,0,0,4.12,4.11h72.32a4.12,4.12,0,0,0,4.11-4.11V71.27a4.12,4.12,0,0,0-4.11-4.11Z" />
  <rect class="cls-2" x="102" y="81.92" width="84.55" height="4" />
  <rect class="cls-2" x="112" y="95.92" width="64.55" height="4" />
  <rect class="cls-2" x="112" y="105.92" width="64.55" height="4" />
  <rect class="cls-2" x="112" y="115.92" width="64.55" height="4" />


  <path class="cls-2"
    d="M13.45,88a2,2,0,0,1-2-2V65.16a2,2,0,0,1,2-2H34.32a2,2,0,0,1,0,4H15.45V86A2,2,0,0,1,13.45,88Z" />
  <path class="cls-2"
    d="M83.13,88a2,2,0,0,1-2-2V67.16H62.26a2,2,0,1,1,0-4H83.13a2,2,0,0,1,2,2V86A2,2,0,0,1,83.13,88Z" />
  <path class="cls-2" d="M83.13,136.84H62.26a2,2,0,1,1,0-4H81.13V114a2,2,0,0,1,4,0v20.87A2,2,0,0,1,83.13,136.84Z" />
  <path class="cls-2" d="M34.32,136.84H13.45a2,2,0,0,1-2-2V114a2,2,0,0,1,4,0v18.87H34.32a2,2,0,0,1,0,4Z" />

  

  <line class="cls-3" x1="13.64" y1="99.96" x2="83.34" y2="99.96" />
</svg>