<svg id="Layer_1" data-name="Layer 1" xmlns="http://www.w3.org/2000/svg" viewBox="0 0 700 700">
	<defs>
		<style>
			.cls-1,
			.cls-4,
			.cls-5 {
			fill: none;
			}

			.cls-2 {
			fill: #ff0000;
			}

			.cls-3 {
			fill: #036;
			}

			.cls-4,
			.cls-5 {
			stroke: #036;
			stroke-linejoin: round;
			stroke-width: 4px;
			}

			.cls-4 {
			stroke-linecap: round;
			}
		</style>
	</defs>
	<g transform="translate(100.00000,600.000000) scale(0.100000,-0.100000)"
fill="#000000" stroke="none">
		<path class="cls-3" d="M1195 5106 c-104 -33 -185 -102 -228 -194 -22 -47 -22 -51 -25 -693
l-3 -647 -83 5 c-109 7 -168 -12 -240 -78 -120 -110 -136 -267 -41 -408 l34
-52 -33 -44 c-45 -58 -60 -106 -60 -185 0 -70 23 -134 69 -194 l25 -33 -34
-51 c-48 -73 -59 -112 -54 -201 5 -77 22 -124 69 -182 l21 -26 -35 -46 c-47
-61 -62 -108 -61 -192 0 -80 22 -140 74 -198 49 -56 106 -85 211 -107 52 -11
103 -22 115 -25 17 -4 22 -15 27 -56 13 -109 91 -220 189 -267 69 -34 141 -42
383 -43 l220 0 155 -186 c206 -247 282 -302 481 -353 186 -47 265 -119 404
-366 98 -173 137 -224 199 -257 41 -22 44 -22 744 -25 484 -2 716 1 743 8 62
17 124 84 139 151 9 39 9 65 2 91 -5 20 -146 279 -313 575 -324 577 -341 609
-358 693 -6 30 -26 422 -46 870 -37 852 -38 868 -86 947 -75 121 -247 188
-385 148 -32 -9 -64 -21 -71 -27 -10 -8 -13 142 -15 694 l-3 703 -33 67 c-38
77 -92 130 -171 167 l-56 26 -915 2 c-720 1 -924 -1 -955 -11z m345 -228 c0
-122 58 -213 162 -252 38 -15 90 -17 448 -14 l405 3 46 27 c85 50 129 133 129
244 l0 64 142 0 c167 0 211 -14 256 -83 l27 -41 3 -990 c1 -545 1 -1125 0
-1290 l-3 -298 -50 62 c-128 160 -350 287 -562 321 -66 11 -73 14 -73 35 0 16
14 32 47 55 135 91 208 200 227 345 6 44 11 52 46 72 21 12 50 37 64 55 44 58
48 94 44 367 -5 288 -11 319 -91 475 -49 95 -186 239 -280 294 -225 132 -496
142 -732 26 -205 -100 -348 -276 -405 -499 -17 -69 -20 -111 -20 -333 0 -230
2 -257 19 -291 20 -38 57 -77 101 -104 21 -13 28 -28 38 -87 22 -128 84 -223
196 -301 51 -35 65 -51 66 -71 0 -24 -4 -27 -72 -39 -229 -41 -431 -162 -581
-348 l-27 -34 2 1294 3 1295 29 37 c48 63 89 76 254 76 l142 0 0 -72z m1020
21 c0 -52 -12 -85 -39 -106 -12 -9 -112 -12 -389 -13 l-373 0 -24 25 c-21 20
-25 34 -25 85 l0 60 425 0 425 0 0 -51z m-241 -664 c139 -45 271 -154 340
-285 40 -75 71 -195 71 -277 l0 -63 -37 41 c-46 51 -73 65 -153 79 -94 16
-184 46 -277 91 -120 59 -139 59 -250 5 -102 -50 -188 -79 -285 -96 -71 -13
-136 -46 -168 -87 l-21 -28 5 95 c7 155 62 276 174 385 160 157 384 209 601
140z m-74 -593 c88 -39 236 -82 281 -82 31 0 60 -41 68 -95 8 -49 42 -85 82
-85 29 0 54 -25 54 -54 0 -27 -18 -46 -42 -46 -36 0 -76 -29 -86 -62 -6 -18
-16 -67 -23 -108 -6 -41 -20 -94 -31 -118 -38 -79 -200 -199 -326 -239 -70
-22 -82 -24 -132 -13 -76 17 -162 59 -248 124 -113 85 -131 115 -157 261 -19
110 -37 140 -89 151 -43 9 -56 22 -56 55 0 30 7 35 75 55 33 10 51 40 60 97 9
54 31 71 110 85 88 16 204 54 275 91 30 16 64 27 75 26 11 -2 61 -21 110 -43z
m-1315 -247 c13 -8 13 -285 1 -285 -28 0 -156 32 -182 46 -40 20 -73 93 -65
140 8 37 48 91 80 105 22 9 148 5 166 -6z m2646 -84 c41 -19 86 -68 98 -106 3
-11 21 -380 41 -820 19 -440 37 -822 41 -850 11 -89 52 -197 119 -318 37 -66
64 -121 62 -124 -4 -3 -583 -231 -1119 -440 l-67 -26 -50 45 c-67 60 -173 114
-273 140 -167 41 -218 76 -364 248 l-106 125 544 6 c343 3 554 9 573 16 102
35 178 103 222 198 l28 60 5 875 c4 639 8 880 17 895 48 83 143 115 229 76z
m-2646 -376 c13 -8 13 -285 1 -285 -35 0 -160 34 -187 51 -60 37 -78 125 -38
187 31 47 73 64 147 58 37 -3 72 -8 77 -11z m1100 -360 c70 -19 131 -19 203 0
32 8 61 15 64 15 3 0 3 -22 1 -49 -13 -136 -176 -200 -277 -108 -30 27 -60 93
-61 130 0 31 -2 31 70 12z m-1107 -100 c15 -6 17 -23 17 -146 0 -114 -3 -139
-14 -139 -36 0 -159 31 -182 46 -76 51 -72 184 9 235 26 17 43 19 92 15 33 -3
68 -8 78 -11z m906 -60 c27 -64 100 -137 169 -168 70 -32 208 -31 277 3 66 32
148 117 171 175 l17 47 46 -7 c245 -37 469 -207 575 -437 51 -109 66 -183 73
-349 6 -159 0 -198 -44 -250 -53 -62 3 -59 -979 -59 l-897 0 -43 25 c-29 17
-49 39 -64 70 -21 43 -22 56 -17 213 6 189 17 244 78 368 97 198 288 352 501
405 110 27 110 27 137 -36z m-906 -401 c15 -5 17 -25 17 -146 l0 -141 -40 7
c-114 18 -145 29 -176 62 -67 70 -46 181 40 220 30 14 121 13 159 -2z m3315
-1442 c174 -310 201 -364 192 -382 -11 -20 -18 -20 -690 -20 l-679 0 -25 23
c-31 27 -182 290 -170 294 5 2 266 105 579 228 314 123 574 223 580 221 5 -1
101 -165 213 -364z"/>
		<path class="cls-2" d="M1770 1703 c-58 -22 -77 -88 -39 -137 l20 -26 380 0 380 0 24 25 c32
31 32 75 1 112 l-24 28 -364 2 c-199 1 -370 -1 -378 -4z"/>
	</g>
</svg>







